<svg height="112" width="112" xmlns="http://www.w3.org/2000/svg"><g fill="#122e1d"><path d="m41.9 61.8c-1.2.3-2.1 1.4-2.1 2.8v.6c.2.9 1 1.2 1.8.8.5-.2.8-.6 1.1-1.1s.4-1.1.6-1.6c.2-1-.5-1.6-1.4-1.4z"/><path d="m72 17h-32c-19.4 0-23 10.2-23 20v38.1c0 9.7 4 19.9 23 19.9h32.8c18.5 0 22.2-10.2 22.2-20v-38.1c0-9.7-3.7-20-23-20zm17.6 49.3c-1.9 1.4-4.1 2.2-6.5 1.9-1.3-.1-2.4-.8-3.2-1.9-.6-.7-1-1.6-1.2-2.4-.1-.4-.2-.8-.5-1.1-.4-.5-.9-.6-1.4-.3s-.8.7-1.1 1.1c-.4.7-.7 1.5-1.1 2.3-.3.7-.6 1.3-1.1 1.8-.9.7-2 .2-2.3-.8 0-.1 0-.2-.1-.4 0-.9 0-1.9-.2-2.8-.2-1.6-1.4-2.1-2.6-1.1-1.1.8-1.8 1.9-2.5 3-.4.6-.7 1.3-1.1 1.9-.2.3-.4.5-.8.5-.7 0-1.1-.3-1.2-1v-1.7c-.2-1-.4-1.1-1.2-.6-1.1.8-2.2 1.7-3.3 2.5-.7.5-1.4.8-2.3.8-.7 0-1.2-.3-1.8-.7-1.1-.9-1.6-2.2-2-3.4 0-.1 0-.3-.2-.5-.1.2-.2.3-.3.4-.7 1.1-1.5 2.1-2.4 3-.6.6-1.3 1-2.1 1.2-1.3.3-2.5-.4-2.9-1.8 0 0 0-.2-.2-.2-.7 1.3-1.7 2.2-3.2 2.1-1.6-.1-2.4-1.2-2.8-2.6-.2 0-.2.1-.3.2-2 1.8-4.3 3.1-7 3.5-1.1.2-2.3.3-3.4 0-2.5-.6-4-2.2-4.9-4.6-.6-1.5-.7-3.1-.6-4.7v-.4c.1-1 .2-2 .5-3 .7-2.8 2-5.4 3.8-7.7.8-1 1.7-1.8 2.6-2.7 1.1-1 2.4-1.9 3.8-2.5 1.2-.6 2.5-1 3.9-1 2.3 0 3.6 1.6 4 3.4v.9c0 .4-.2.7-.6.8-.4 0-.7-.2-.8-.5-.1-.4-.2-.8-.5-1.2-.6-1-1.4-1.4-2.6-1.2-1.3.3-2.5.9-3.6 1.7-3.6 2.6-6.1 6-7.3 10.3-.2.6-.3 1.3-.4 2s-.1 1.4-.1 2.2c0 1 .1 1.9.5 2.9.6 1.6 1.6 2.6 3.3 2.9.9.2 1.8.1 2.8 0 1.4-.3 2.6-.9 3.8-1.7 1.3-.8 2.5-1.8 3.6-2.9.6-.5 1-1.2 1.7-1.6.9-.6 1.9-.8 3-.6 1.2.2 1.7 1.1 2.1 2.1 0 .2.1.5.2.7.2.9.4 1.7.6 2.6.2.7.8.9 1.5.6.1 0 .3-.2.4-.2.7-.6 1.2-1.2 1.7-2 .7-.8 1.2-1.8 1.8-2.7v-.4c-.3-2.2-.3-4.5-.2-6.8 0-1 .1-2.1.2-3.2 0-1.3.3-2.6.7-3.8.2-.8.5-1.6 1-2.3.8-1 2.3-.9 3 .3s.9 2.5.9 3.8c0 2.8-.6 5.4-1.5 8-.4 1.2-.9 2.4-1.6 3.5 0 .2-.1.3 0 .5.2 1.2.5 2.5 1 3.6.2.3.3.7.6 1 .4.4.8.5 1.3.3.6-.3 1-.7 1.5-1.1 1-.8 1.9-1.6 3.1-2 1.5-.5 2.7.2 3.1 1.7 0 0 0 .1.1.2.4-.5.7-1 1-1.4.7-.7 1.3-1.5 2.1-2 1.9-1.2 3.6-.3 4.4.9.3.5.6 1 .8 1.6 0 .1 0 .2.2.4.4-.6.7-1.2 1.2-1.8.8-.9 1.8-1.6 3.1-1.5 1 0 1.9.5 2.5 1.3.5.7.9 1.5 1.2 2.4.7 1.6 1.8 2.5 3.6 2.6 1.2 0 2.3-.2 3.4-.7.3-.1.7-.3 1-.4s.6-.2.8.1 0 .6-.3.7z"/><path d="m55 47.7c0-.5-.1-1-.5-1.5-1.1 3.4-1 6.9-1.1 10.4.2 0 .2-.1.2-.2 1.2-2.8 1.7-5.6 1.3-8.7z"/></g></svg>