<svg height="112" width="112" xmlns="http://www.w3.org/2000/svg"><g fill="#122e1d"><path d="m6.4 32.9h21.2c2.5 0 5-.3 7.6-.4h.9l-.3 10.2h-1.7l-.3-.3c-.3-1.2-.6-2.4-1-3.5-.2-.7-.5-1.3-.8-1.9-.6-1-1.5-1.5-2.7-1.5h-11.3c-.9 0-1 .1-1 1v12.6c0 .6 0 .6.6.6 2.1 0 4.2 0 6.3-.2.5 0 .9-.1 1.4-.2.9-.2 1.4-.7 1.6-1.6.2-1 .5-2.1.8-3.2 0-.4.2-.5.6-.5h1.2c.3 0 .4 0 .4.4 0 1.1-.2 2.2-.2 3.3v9.1h-2c-.1-.7-.3-1.4-.4-2.1 0-.2 0-.3-.1-.5-.5-1.6-1.3-2.2-3-2.3-2.2 0-4.3-.1-6.5-.2-.4 0-.5.1-.5.5v11.7c.2 1.2 1.1 2 2.5 2.1h8.7c.8 0 1.6 0 2.4-.2 1.7-.3 2.9-1.4 3.6-2.9s1.3-2.9 2-4.4c.2-.3.3-.5.7-.4h1.2c-.4 3.5-.8 7-1.2 10.6-10.1-.2-20.2-.2-30.4 0v-1.7s.2-.2.3-.2c1-.2 1.9-.4 2.9-.7.8-.2 1.4-.5 1.6-1.4 0-.3.1-.6.1-.9 0-6.2.1-12.3.1-18.5 0-2.3 0-4.6-.1-7v-1.1c0-.8-.5-1.3-1.2-1.5-.9-.2-1.9-.5-2.8-.7-.8-.2-.8-.2-.8-1v-1.1zm69.6 45.2c.4-2.2.7-4.2 1.1-6.3 0-.4.2-.6.6-.6h1.4c.2 1.2.5 2.4.7 3.5.3 1.3 1 1.9 2.4 1.9 2.2-.1 3.9-1.2 5.4-2.7 1.1-1.1 1.9-2.3 2.7-3.6v-.5c-2.8-7-5.5-14-8.6-20.8-.1-.3-.3-.5-.4-.8-.3-.6-.8-1-1.4-1.2-1.2-.4-1.2-.4-1.2-1.6s0-.5.6-.5c2.7 0 5.5.2 8.2 0 1.1 0 2.1-.1 3.3-.2v1.6s-.1.2-.2.2l-1.5.3c-.7.2-1.4.4-1.6 1.2v1c1.8 4.8 3.6 9.6 5.3 14.4 0 .1.1.2.2.4 0-.2.2-.3.2-.4 1.8-4.4 3.7-8.8 5.5-13.2.2-.4.2-.7.3-1.1.2-.9 0-1.6-.9-2l-1.8-.6c-.2 0-.4-.2-.3-.5v-1.3h9.7v1.6s0 .2-.2.2c-.4.3-.8.6-1.2.8-1.2.4-1.8 1.3-2.3 2.5-2.6 6.1-5.2 12.1-7.8 18.2-1.2 2.8-2.7 5.6-4.8 7.9-1.6 1.8-3.5 3.1-5.9 3.6-2.5.4-4.9.3-7.2-1.1 0 0-.2 0-.2-.1z"/><path d="m60 67.6c.4-2.2.2-4.5 0-6.8h1.6s.2.2.2.3c.4 1 .9 2 1.3 3 .8 2 2.2 2.9 4.2 3 .7 0 1.4 0 2.2-.2 3-.7 3.3-3.9 2.2-5.5-.5-.7-1.1-1.3-1.9-1.7-1.4-.7-2.9-1.4-4.3-2.1-1.1-.5-2.2-1.1-3.1-1.9-1.5-1.3-2.2-3-2.1-4.9 0-3.3 2-5.5 5.4-6.3 1.7-.4 3.5-.5 5.2-.3 1.4.2 2.8.4 4.2.7.8.2.8.2.7 1-.2 1.6-.3 3.3-.4 4.9v.2c-.5 0-1 .1-1.5.1 0 0-.3-.2-.3-.3-.4-1-.7-2-1-2.9-.2-.6-.6-1.1-1.2-1.4-1.8-.8-3.6-.8-5.4 0-1.6.8-2.1 2.8-1.1 4.4.5.8 1.2 1.3 2 1.8 1.3.7 2.6 1.3 3.9 1.9 1.4.6 2.7 1.3 3.8 2.3 3.1 2.6 3 8.1-.8 10.5-1.6 1-3.3 1.5-5.1 1.6-2.9.2-5.7-.4-8.4-1.3 0 0-.1 0-.2-.1zm-4.2-22.8c-.1 1.1-.2 2.2-.4 3.3-2.4-.2-4.8-.4-7.2-.5v13.3c0 1 0 2.1.4 3.1.7 1.9 2 2.5 3.8 2.2 1.4-.2 1.9-.5 3.3-1.9.3.3.6.7.8 1v.4c-.4.8-1 1.5-1.8 2-2.4 1.5-5 1.9-7.7 1-2.3-.8-3.8-2.8-3.8-5.3v-15.2c0-.4 0-.6-.5-.5h-3.8v-1.6s.1-.2.2-.2c3.5-.4 5.4-2.6 6.4-5.7.3-.8.5-1.6.7-2.4 0-.3.2-.3.4-.3h1.3c.4 0 .4.1.4.5v6.6c0 2.2 0 .5.5.5 2.2-.1 4.5-.2 6.7-.3h.2z"/></g></svg>