<svg height="112" width="112" xmlns="http://www.w3.org/2000/svg"><path d="m22.8 51.3c-.7-3.6-3.1-6.2-7.4-6.2h-.2c-4.9 0-8.6 2.5-10.6 6.2-1.1 2.1-1.6 4.4-1.6 6.8 0 4.8 2.6 7.8 6 8.6.7.2 1.3.2 2 .2s1.5 0 2.2-.2c1.3-.3 2.5-1 3.4-2.1v1.9c0 .2.1.2.2.2h3l.1-.1 2-10.3c0-.2-.1-.3-.2-.3h-7.3c-.1 0-.2 0-.2.2l-.6 2.8c0 .2.1.3.2.3h3.7c-.8 2.2-2.6 4.1-5.6 4.1s-4.8-2.1-4.8-5.8c0-2.2.7-4.4 2.1-6.2 1.3-1.6 3.2-2.6 5.3-2.6s3.2.9 4.1 2.6c.2.4.4.9.5 1.3 0 0 .1.1.2.1l3.3-.9s.1-.1.1-.2v-.3m8.2-6.1c0-.1-.1-.2-.2-.2h-3.4c-.1 0-.2 0-.2.2l-1.2 6-2.9 15.1v.1s.1.1.2.1h3.4c.1 0 .2 0 .2-.2l2.9-15.2 1.2-6m10.5 6.1c-.7-.2-1.3-.2-2-.2-.8 0-1.6 0-2.4.2-1.5.3-2.8 1.1-3.9 2.2-1.8 1.8-2.6 4-2.6 6.9s1.7 5.5 4.7 6.3c.7.2 1.3.2 2 .2.8 0 1.7 0 2.5-.2 1.5-.3 2.8-1.1 3.9-2.2 1.8-1.8 2.6-4 2.6-6.9s-1.8-5.5-4.7-6.3m-.5 10.7c-.8 1.1-2.1 1.7-3.4 1.7-1.8 0-3-1.5-3-3.8s.4-2.9 1.1-3.9c.8-1.1 2.1-1.7 3.4-1.6 1.8 0 3 1.5 3 3.8s-.4 2.9-1.1 3.9m17.8-8.6c-.5-1-1.7-1.8-3-2.2-.5-.2-1.1-.2-1.7-.2-.7 0-1.3 0-2 .2-2.1.5-3.5 2.3-3.4 4.5 0 2 1.3 3.2 3.2 4.1 1.8.8 2.6 1.4 2.6 2.3s-.9 1.6-2 1.6c-1.5 0-2.5-.9-2.9-2.4 0 0-.1-.2-.2-.2l-2.8 1.2s-.1.1-.1.2c.5 2 2 3.6 3.9 4.1.6.2 1.2.2 1.8.2.7 0 1.5 0 2.2-.2 2.3-.6 3.9-2.2 3.9-5.1s-1.6-3.2-3.2-3.9c-1-.5-2.6-1-2.6-2 0-.8.6-1.4 1.3-1.4h.2c.9 0 1.7.4 2.2 1.2h.3l2.4-1.7s.1-.2 0-.3m9.5-2.2c-.6-.2-1.1-.2-1.7-.2s-1.3 0-2 .2c-2.1.5-3.5 2.3-3.4 4.5 0 2 1.3 3.2 3.1 4.1 1.7.8 2.6 1.4 2.6 2.3s-.9 1.6-1.9 1.6-2.5-.9-2.9-2.4c0 0-.1-.1-.2-.1l-2.8 1.2s-.1.1-.1.2c.5 2 2 3.6 3.9 4.1.6.2 1.2.2 1.8.2.7 0 1.4 0 2.2-.2 2.3-.6 3.9-2.2 3.9-5.1s-1.6-3.2-3.2-3.9c-1-.5-2.6-1-2.6-2 0-.8.6-1.4 1.3-1.4h.2c.9 0 1.7.4 2.2 1.2h.3l2.4-1.7v-.2c0-.1 0 0 0 0-.5-1-1.7-1.8-3-2.2m9.7-.2h-3.3s-.2 0-.2.2l-2.9 15c0 .2.1.3.2.3h3.4v-.1l2.9-15c0-.1 0-.2-.2-.2m12-.2c-.6-.2-1.3-.2-1.9-.2-.7 0-1.5 0-2.2.2-4.1.9-7 4.6-6.9 8.8 0 3.5 1.9 5.8 4.6 6.6.6.2 1.3.2 1.9.2.8 0 1.5 0 2.3-.2 2.1-.5 3.7-1.8 5.2-3.9v-.3l-2.6-1.4h-.2c-1.1 1.6-2.4 2.5-4.1 2.5s-3.1-1.4-3.1-3v-.5h11v-.1c.2-.9.4-1.9.4-2.8 0-2.8-1.4-5.2-4.2-5.9m-6.7 5.9c.7-1.7 2.3-2.9 4.1-2.9 1.9 0 2.8 1 2.9 2.9zm23-2.5h.2v-.1l1.1-3c0-.2 0-.3-.1-.3h-.2c-.5-.2-1-.3-1.6-.3s-1.1 0-1.7.2c-1.3.4-2.4 1.2-3.2 2.3l.4-2c0-.1 0-.2-.1-.3h-3.4c-.1 0-.2 0-.2.2l-2.9 15v.1s.1.1.2.1h3.5v-.1l1-5.3c.9-4.8 3.5-6.8 5.4-6.8.5 0 .9 0 1.3.3m-29.1-9.4c-1.2 0-2.2 1-2.2 2.2s1 2.2 2.2 2.2 2.2-1 2.2-2.2-.9-2.1-2.1-2.2m29.5 17.3c-1.2 0-2.2 1-2.2 2.2s.4 1.5 1.1 1.8c.7.4 1.5.4 2.2 0 1-.6 1.3-2 .7-3-.4-.6-1.1-1-1.9-1" fill="#122e1d"/></svg>